# xmcd
# 
# Track frame offsets:
#     150
#     5432
#     18438
#     37275
#     54190
#     74846
#     90444
#     108849
#     117842
#     136744
#     143820
#     154160
#     169388
#     180261
#     198271
#     219096
#     232136
#     251851
#     264064
#     278224
#     288932
#     300550
# 
# Disc length: 4310
# 
# Revision: 2
# Processed by: cddbd v1.5.2PL0 Copyright (c) Steve Scherf et al.
# Submitted via: BonkEnc v1.0.5
# 
DISCID=3110d416
DTITLE=Michael Bloomfield - If You Love These Blues, Play 'em As You Please
DYEAR=1979
DGENRE=Blues
TTITLE0=If You Love These Blues
TTITLE1=Hey, Foreman
TTITLE2=Wdia
TTITLE3=Death Cell Rounder Blues
TTITLE4=City Girl
TTITLE5=Kansas City Blues
TTITLE6=Mama Lion
TTITLE7=Thrift Shop Rag
TTITLE8=Death In My Family
TTITLE9=East Colorado Blues
TTITLE10=Blue Ghost Blues
TTITLE11=The Train Is Gone
TTITLE12=The Altar Song
TTITLE13=I'll Overcome
TTITLE14=I Must See Jesus
TTITLE15=Great Dreams From Heaven
TTITLE16=Gonna Need Somebody On My Bond
TTITLE17=I Am A Pligrim
TTITLE18=Just A Closer Walk With Thee
TTITLE19=Have Thine Own Way
TTITLE20=Farther Along
TTITLE21=Peace In The Valley
EXTD=
EXTT0=
EXTT1=
EXTT2=
EXTT3=
EXTT4=
EXTT5=
EXTT6=
EXTT7=
EXTT8=
EXTT9=
EXTT10=
EXTT11=
EXTT12=
EXTT13=
EXTT14=
EXTT15=
EXTT16=
EXTT17=
EXTT18=
EXTT19=
EXTT20=
EXTT21=
PLAYORDER=
